<?xml version="1.0" encoding="UTF-8" standalone="no"?><svg xmlns="http://www.w3.org/2000/svg" xmlns:xlink="http://www.w3.org/1999/xlink" contentScriptType="application/ecmascript" contentStyleType="text/css" height="1501px" preserveAspectRatio="none" style="width:1121px;height:1501px;" version="1.1" viewBox="0 0 1121 1501" width="1121px" zoomAndPan="magnify"><defs><filter height="300%" id="fdinqtx518h6d" width="300%" x="-1" y="-1"><feGaussianBlur result="blurOut" stdDeviation="2.0"/><feColorMatrix in="blurOut" result="blurOut2" type="matrix" values="0 0 0 0 0 0 0 0 0 0 0 0 0 0 0 0 0 0 .4 0"/><feOffset dx="4.0" dy="4.0" in="blurOut2" result="blurOut3"/><feBlend in="SourceGraphic" in2="blurOut3" mode="normal"/></filter></defs><g><ellipse cx="710.125" cy="20" fill="#000000" filter="url(#fdinqtx518h6d)" rx="10" ry="10" style="stroke: none; stroke-width: 1.0;"/><rect fill="#FFFFFF" filter="url(#fdinqtx518h6d)" height="1408.4922" style="stroke: #000000; stroke-width: 2.0;" width="1100" x="10" y="40"/><path d="M63,41 L63,49.2969 L53,59.2969 L10,59.2969 " fill="none" style="stroke: #000000; stroke-width: 2.0;"/><text fill="#000000" font-family="sans-serif" font-size="14" lengthAdjust="spacingAndGlyphs" textLength="43" x="13" y="53.9951">Adapt</text><polygon fill="#FEFECE" filter="url(#fdinqtx518h6d)" points="647.125,76.2969,773.125,76.2969,785.125,88.2969,773.125,100.2969,647.125,100.2969,635.125,88.2969,647.125,76.2969" style="stroke: #A80036; stroke-width: 1.5;"/><text fill="#000000" font-family="sans-serif" font-size="11" lengthAdjust="spacingAndGlyphs" textLength="126" x="647.125" y="92.105">Road needs to adapt?</text><text fill="#000000" font-family="sans-serif" font-size="11" lengthAdjust="spacingAndGlyphs" textLength="22" x="613.125" y="85.7026">yes</text><text fill="#000000" font-family="sans-serif" font-size="11" lengthAdjust="spacingAndGlyphs" textLength="14" x="785.125" y="85.7026">no</text><polygon fill="#FEFECE" filter="url(#fdinqtx518h6d)" points="376.25,110.2969,479.25,110.2969,491.25,122.2969,479.25,134.2969,376.25,134.2969,364.25,122.2969,376.25,110.2969" style="stroke: #A80036; stroke-width: 1.5;"/><text fill="#000000" font-family="sans-serif" font-size="11" lengthAdjust="spacingAndGlyphs" textLength="103" x="376.25" y="126.105">Too few workers?</text><text fill="#000000" font-family="sans-serif" font-size="11" lengthAdjust="spacingAndGlyphs" textLength="22" x="342.25" y="119.7026">yes</text><text fill="#000000" font-family="sans-serif" font-size="11" lengthAdjust="spacingAndGlyphs" textLength="14" x="491.25" y="119.7026">no</text><polygon fill="#FEFECE" filter="url(#fdinqtx518h6d)" points="114,144.2969,296,144.2969,308,156.2969,296,168.2969,114,168.2969,102,156.2969,114,144.2969" style="stroke: #A80036; stroke-width: 1.5;"/><text fill="#000000" font-family="sans-serif" font-size="11" lengthAdjust="spacingAndGlyphs" textLength="182" x="114" y="160.105">All apartmens set to MULTIPLY?</text><text fill="#000000" font-family="sans-serif" font-size="11" lengthAdjust="spacingAndGlyphs" textLength="22" x="80" y="153.7026">yes</text><text fill="#000000" font-family="sans-serif" font-size="11" lengthAdjust="spacingAndGlyphs" textLength="14" x="308" y="153.7026">no</text><rect fill="#FEFECE" filter="url(#fdinqtx518h6d)" height="33.9688" rx="12.5" ry="12.5" style="stroke: #A80036; stroke-width: 1.5;" width="140" x="22" y="178.2969"/><text fill="#000000" font-family="sans-serif" font-size="12" lengthAdjust="spacingAndGlyphs" textLength="120" x="32" y="199.4355">Add one apartment</text><rect fill="#FEFECE" filter="url(#fdinqtx518h6d)" height="33.9688" rx="12.5" ry="12.5" style="stroke: #A80036; stroke-width: 1.5;" width="212" x="212" y="178.2969"/><text fill="#000000" font-family="sans-serif" font-size="12" lengthAdjust="spacingAndGlyphs" textLength="192" x="222" y="199.4355">Set all apartments to MULTIPLY</text><polygon fill="#FEFECE" filter="url(#fdinqtx518h6d)" points="205,218.2656,217,230.2656,205,242.2656,193,230.2656,205,218.2656" style="stroke: #A80036; stroke-width: 1.5;"/><polygon fill="#FEFECE" filter="url(#fdinqtx518h6d)" points="569.5,144.2969,731.5,144.2969,743.5,156.2969,731.5,168.2969,569.5,168.2969,557.5,156.2969,569.5,144.2969" style="stroke: #A80036; stroke-width: 1.5;"/><text fill="#000000" font-family="sans-serif" font-size="11" lengthAdjust="spacingAndGlyphs" textLength="162" x="569.5" y="160.105">All apartments set to REST?</text><text fill="#000000" font-family="sans-serif" font-size="11" lengthAdjust="spacingAndGlyphs" textLength="22" x="535.5" y="153.7026">yes</text><text fill="#000000" font-family="sans-serif" font-size="11" lengthAdjust="spacingAndGlyphs" textLength="14" x="743.5" y="153.7026">no</text><rect fill="#FEFECE" filter="url(#fdinqtx518h6d)" height="33.9688" rx="12.5" ry="12.5" style="stroke: #A80036; stroke-width: 1.5;" width="167" x="464" y="178.2969"/><text fill="#000000" font-family="sans-serif" font-size="12" lengthAdjust="spacingAndGlyphs" textLength="147" x="474" y="199.4355">Remove one apartment</text><rect fill="#FEFECE" filter="url(#fdinqtx518h6d)" height="33.9688" rx="12.5" ry="12.5" style="stroke: #A80036; stroke-width: 1.5;" width="187" x="660" y="178.2969"/><text fill="#000000" font-family="sans-serif" font-size="12" lengthAdjust="spacingAndGlyphs" textLength="167" x="670" y="199.4355">Set all apartments to REST</text><polygon fill="#FEFECE" filter="url(#fdinqtx518h6d)" points="650.5,218.2656,662.5,230.2656,650.5,242.2656,638.5,230.2656,650.5,218.2656" style="stroke: #A80036; stroke-width: 1.5;"/><polygon fill="#FEFECE" filter="url(#fdinqtx518h6d)" points="427.75,248.2656,439.75,260.2656,427.75,272.2656,415.75,260.2656,427.75,248.2656" style="stroke: #A80036; stroke-width: 1.5;"/><rect fill="#FEFECE" filter="url(#fdinqtx518h6d)" height="33.9688" rx="12.5" ry="12.5" style="stroke: #A80036; stroke-width: 1.5;" width="211" x="887" y="110.2969"/><text fill="#000000" font-family="sans-serif" font-size="12" lengthAdjust="spacingAndGlyphs" textLength="191" x="897" y="131.4355">Set all apartments to NEUTRAL</text><polygon fill="#FEFECE" filter="url(#fdinqtx518h6d)" points="710.125,278.2656,722.125,290.2656,710.125,302.2656,698.125,290.2656,710.125,278.2656" style="stroke: #A80036; stroke-width: 1.5;"/><polygon fill="#FEFECE" filter="url(#fdinqtx518h6d)" points="667.625,370.668,752.625,370.668,764.625,382.668,752.625,394.668,667.625,394.668,655.625,382.668,667.625,370.668" style="stroke: #A80036; stroke-width: 1.5;"/><text fill="#000000" font-family="sans-serif" font-size="11" lengthAdjust="spacingAndGlyphs" textLength="85" x="667.625" y="386.4761">Too little food?</text><text fill="#000000" font-family="sans-serif" font-size="11" lengthAdjust="spacingAndGlyphs" textLength="22" x="633.625" y="380.0737">yes</text><text fill="#000000" font-family="sans-serif" font-size="11" lengthAdjust="spacingAndGlyphs" textLength="14" x="764.625" y="380.0737">no</text><polygon fill="#FEFECE" filter="url(#fdinqtx518h6d)" points="459.375,404.668,599.375,404.668,611.375,416.668,599.375,428.668,459.375,428.668,447.375,416.668,459.375,404.668" style="stroke: #A80036; stroke-width: 1.5;"/><text fill="#000000" font-family="sans-serif" font-size="11" lengthAdjust="spacingAndGlyphs" textLength="140" x="459.375" y="420.4761">More than 2 foodcourts?</text><text fill="#000000" font-family="sans-serif" font-size="11" lengthAdjust="spacingAndGlyphs" textLength="22" x="425.375" y="414.0737">yes</text><text fill="#000000" font-family="sans-serif" font-size="11" lengthAdjust="spacingAndGlyphs" textLength="14" x="611.375" y="414.0737">no</text><rect fill="#FEFECE" filter="url(#fdinqtx518h6d)" height="33.9688" rx="12.5" ry="12.5" style="stroke: #A80036; stroke-width: 1.5;" width="162" x="356.375" y="438.668"/><text fill="#000000" font-family="sans-serif" font-size="12" lengthAdjust="spacingAndGlyphs" textLength="142" x="366.375" y="459.8066">Remove one foodcourt</text><rect fill="#FEFECE" filter="url(#fdinqtx518h6d)" height="33.9688" rx="12.5" ry="12.5" style="stroke: #A80036; stroke-width: 1.5;" width="129" x="556.875" y="438.668"/><text fill="#000000" font-family="sans-serif" font-size="12" lengthAdjust="spacingAndGlyphs" textLength="109" x="566.875" y="459.8066">Add one farmland</text><polygon fill="#FEFECE" filter="url(#fdinqtx518h6d)" points="529.375,478.6367,541.375,490.6367,529.375,502.6367,517.375,490.6367,529.375,478.6367" style="stroke: #A80036; stroke-width: 1.5;"/><polygon fill="#FEFECE" filter="url(#fdinqtx518h6d)" points="825.875,404.668,955.875,404.668,967.875,416.668,955.875,428.668,825.875,428.668,813.875,416.668,825.875,404.668" style="stroke: #A80036; stroke-width: 1.5;"/><text fill="#000000" font-family="sans-serif" font-size="11" lengthAdjust="spacingAndGlyphs" textLength="130" x="825.875" y="420.4761">More than 2 farmland?</text><text fill="#000000" font-family="sans-serif" font-size="11" lengthAdjust="spacingAndGlyphs" textLength="22" x="791.875" y="414.0737">yes</text><text fill="#000000" font-family="sans-serif" font-size="11" lengthAdjust="spacingAndGlyphs" textLength="14" x="967.875" y="414.0737">no</text><rect fill="#FEFECE" filter="url(#fdinqtx518h6d)" height="33.9688" rx="12.5" ry="12.5" style="stroke: #A80036; stroke-width: 1.5;" width="156" x="725.875" y="438.668"/><text fill="#000000" font-family="sans-serif" font-size="12" lengthAdjust="spacingAndGlyphs" textLength="136" x="735.875" y="459.8066">Remove one farmland</text><rect fill="#FEFECE" filter="url(#fdinqtx518h6d)" height="33.9688" rx="12.5" ry="12.5" style="stroke: #A80036; stroke-width: 1.5;" width="135" x="910.375" y="438.668"/><text fill="#000000" font-family="sans-serif" font-size="12" lengthAdjust="spacingAndGlyphs" textLength="115" x="920.375" y="459.8066">Add one foodcourt</text><polygon fill="#FEFECE" filter="url(#fdinqtx518h6d)" points="890.875,478.6367,902.875,490.6367,890.875,502.6367,878.875,490.6367,890.875,478.6367" style="stroke: #A80036; stroke-width: 1.5;"/><polygon fill="#FEFECE" filter="url(#fdinqtx518h6d)" points="710.125,508.6367,722.125,520.6367,710.125,532.6367,698.125,520.6367,710.125,508.6367" style="stroke: #A80036; stroke-width: 1.5;"/><polygon fill="#FEFECE" filter="url(#fdinqtx518h6d)" points="646.125,322.2656,774.125,322.2656,786.125,334.2656,774.125,346.2656,646.125,346.2656,634.125,334.2656,646.125,322.2656" style="stroke: #A80036; stroke-width: 1.5;"/><text fill="#000000" font-family="sans-serif" font-size="11" lengthAdjust="spacingAndGlyphs" textLength="22" x="714.125" y="356.4761">yes</text><text fill="#000000" font-family="sans-serif" font-size="11" lengthAdjust="spacingAndGlyphs" textLength="128" x="646.125" y="338.0737">Shed needs to adapt?</text><text fill="#000000" font-family="sans-serif" font-size="11" lengthAdjust="spacingAndGlyphs" textLength="14" x="786.125" y="331.6714">no</text><polygon fill="#FEFECE" filter="url(#fdinqtx518h6d)" points="710.125,552.6367,722.125,564.6367,710.125,576.6367,698.125,564.6367,710.125,552.6367" style="stroke: #A80036; stroke-width: 1.5;"/><polygon fill="#FEFECE" filter="url(#fdinqtx518h6d)" points="651.625,645.0391,768.625,645.0391,780.625,657.0391,768.625,669.0391,651.625,669.0391,639.625,657.0391,651.625,645.0391" style="stroke: #A80036; stroke-width: 1.5;"/><text fill="#000000" font-family="sans-serif" font-size="11" lengthAdjust="spacingAndGlyphs" textLength="117" x="651.625" y="660.8472">Too many products?</text><text fill="#000000" font-family="sans-serif" font-size="11" lengthAdjust="spacingAndGlyphs" textLength="22" x="617.625" y="654.4448">yes</text><text fill="#000000" font-family="sans-serif" font-size="11" lengthAdjust="spacingAndGlyphs" textLength="14" x="780.625" y="654.4448">no</text><polygon fill="#FEFECE" filter="url(#fdinqtx518h6d)" points="516.625,679.0391,646.625,679.0391,658.625,691.0391,646.625,703.0391,516.625,703.0391,504.625,691.0391,516.625,679.0391" style="stroke: #A80036; stroke-width: 1.5;"/><text fill="#000000" font-family="sans-serif" font-size="11" lengthAdjust="spacingAndGlyphs" textLength="130" x="516.625" y="694.8472">More than 2 factories?</text><text fill="#000000" font-family="sans-serif" font-size="11" lengthAdjust="spacingAndGlyphs" textLength="22" x="482.625" y="688.4448">yes</text><text fill="#000000" font-family="sans-serif" font-size="11" lengthAdjust="spacingAndGlyphs" textLength="14" x="658.625" y="688.4448">no</text><rect fill="#FEFECE" filter="url(#fdinqtx518h6d)" height="33.9688" rx="12.5" ry="12.5" style="stroke: #A80036; stroke-width: 1.5;" width="146" x="421.625" y="713.0391"/><text fill="#000000" font-family="sans-serif" font-size="12" lengthAdjust="spacingAndGlyphs" textLength="126" x="431.625" y="734.1777">Remove one factory</text><rect fill="#FEFECE" filter="url(#fdinqtx518h6d)" height="33.9688" rx="12.5" ry="12.5" style="stroke: #A80036; stroke-width: 1.5;" width="140" x="598.625" y="713.0391"/><text fill="#000000" font-family="sans-serif" font-size="12" lengthAdjust="spacingAndGlyphs" textLength="120" x="608.625" y="734.1777">Add one apartment</text><polygon fill="#FEFECE" filter="url(#fdinqtx518h6d)" points="581.625,753.0078,593.625,765.0078,581.625,777.0078,569.625,765.0078,581.625,753.0078" style="stroke: #A80036; stroke-width: 1.5;"/><rect fill="#FEFECE" filter="url(#fdinqtx518h6d)" height="33.9688" rx="12.5" ry="12.5" style="stroke: #A80036; stroke-width: 1.5;" width="140" x="768.625" y="679.0391"/><text fill="#000000" font-family="sans-serif" font-size="12" lengthAdjust="spacingAndGlyphs" textLength="120" x="778.625" y="700.1777">Add one apartment</text><polygon fill="#FEFECE" filter="url(#fdinqtx518h6d)" points="710.125,783.0078,722.125,795.0078,710.125,807.0078,698.125,795.0078,710.125,783.0078" style="stroke: #A80036; stroke-width: 1.5;"/><polygon fill="#FEFECE" filter="url(#fdinqtx518h6d)" points="633.625,596.6367,786.625,596.6367,798.625,608.6367,786.625,620.6367,633.625,620.6367,621.625,608.6367,633.625,596.6367" style="stroke: #A80036; stroke-width: 1.5;"/><text fill="#000000" font-family="sans-serif" font-size="11" lengthAdjust="spacingAndGlyphs" textLength="22" x="714.125" y="630.8472">yes</text><text fill="#000000" font-family="sans-serif" font-size="11" lengthAdjust="spacingAndGlyphs" textLength="153" x="633.625" y="612.4448">Magazine needs to adapt?</text><text fill="#000000" font-family="sans-serif" font-size="11" lengthAdjust="spacingAndGlyphs" textLength="14" x="798.625" y="606.0425">no</text><polygon fill="#FEFECE" filter="url(#fdinqtx518h6d)" points="710.125,827.0078,722.125,839.0078,710.125,851.0078,698.125,839.0078,710.125,827.0078" style="stroke: #A80036; stroke-width: 1.5;"/><rect fill="#FEFECE" filter="url(#fdinqtx518h6d)" height="33.9688" rx="12.5" ry="12.5" style="stroke: #A80036; stroke-width: 1.5;" width="140" x="640.125" y="919.4102"/><text fill="#000000" font-family="sans-serif" font-size="12" lengthAdjust="spacingAndGlyphs" textLength="120" x="650.125" y="940.5488">Add one apartment</text><polygon fill="#FEFECE" filter="url(#fdinqtx518h6d)" points="633.625,871.0078,786.625,871.0078,798.625,883.0078,786.625,895.0078,633.625,895.0078,621.625,883.0078,633.625,871.0078" style="stroke: #A80036; stroke-width: 1.5;"/><text fill="#000000" font-family="sans-serif" font-size="11" lengthAdjust="spacingAndGlyphs" textLength="22" x="714.125" y="905.2183">yes</text><text fill="#000000" font-family="sans-serif" font-size="11" lengthAdjust="spacingAndGlyphs" textLength="153" x="633.625" y="886.8159">Fewer than 2 apartments?</text><text fill="#000000" font-family="sans-serif" font-size="11" lengthAdjust="spacingAndGlyphs" textLength="14" x="798.625" y="880.4136">no</text><polygon fill="#FEFECE" filter="url(#fdinqtx518h6d)" points="710.125,973.3789,722.125,985.3789,710.125,997.3789,698.125,985.3789,710.125,973.3789" style="stroke: #A80036; stroke-width: 1.5;"/><rect fill="#FEFECE" filter="url(#fdinqtx518h6d)" height="33.9688" rx="12.5" ry="12.5" style="stroke: #A80036; stroke-width: 1.5;" width="129" x="645.625" y="1065.7813"/><text fill="#000000" font-family="sans-serif" font-size="12" lengthAdjust="spacingAndGlyphs" textLength="109" x="655.625" y="1086.9199">Add one farmland</text><polygon fill="#FEFECE" filter="url(#fdinqtx518h6d)" points="638.125,1017.3789,782.125,1017.3789,794.125,1029.3789,782.125,1041.3789,638.125,1041.3789,626.125,1029.3789,638.125,1017.3789" style="stroke: #A80036; stroke-width: 1.5;"/><text fill="#000000" font-family="sans-serif" font-size="11" lengthAdjust="spacingAndGlyphs" textLength="22" x="714.125" y="1051.5894">yes</text><text fill="#000000" font-family="sans-serif" font-size="11" lengthAdjust="spacingAndGlyphs" textLength="144" x="638.125" y="1033.187">Fewer than 2 farmlands?</text><text fill="#000000" font-family="sans-serif" font-size="11" lengthAdjust="spacingAndGlyphs" textLength="14" x="794.125" y="1026.7847">no</text><polygon fill="#FEFECE" filter="url(#fdinqtx518h6d)" points="710.125,1119.75,722.125,1131.75,710.125,1143.75,698.125,1131.75,710.125,1119.75" style="stroke: #A80036; stroke-width: 1.5;"/><rect fill="#FEFECE" filter="url(#fdinqtx518h6d)" height="33.9688" rx="12.5" ry="12.5" style="stroke: #A80036; stroke-width: 1.5;" width="135" x="642.625" y="1212.1523"/><text fill="#000000" font-family="sans-serif" font-size="12" lengthAdjust="spacingAndGlyphs" textLength="115" x="652.625" y="1233.291">Add one foodcourt</text><polygon fill="#FEFECE" filter="url(#fdinqtx518h6d)" points="636.625,1163.75,783.625,1163.75,795.625,1175.75,783.625,1187.75,636.625,1187.75,624.625,1175.75,636.625,1163.75" style="stroke: #A80036; stroke-width: 1.5;"/><text fill="#000000" font-family="sans-serif" font-size="11" lengthAdjust="spacingAndGlyphs" textLength="22" x="714.125" y="1197.9604">yes</text><text fill="#000000" font-family="sans-serif" font-size="11" lengthAdjust="spacingAndGlyphs" textLength="147" x="636.625" y="1179.5581">Fewer than 2 foodcourts?</text><text fill="#000000" font-family="sans-serif" font-size="11" lengthAdjust="spacingAndGlyphs" textLength="14" x="795.625" y="1173.1558">no</text><polygon fill="#FEFECE" filter="url(#fdinqtx518h6d)" points="710.125,1266.1211,722.125,1278.1211,710.125,1290.1211,698.125,1278.1211,710.125,1266.1211" style="stroke: #A80036; stroke-width: 1.5;"/><rect fill="#FEFECE" filter="url(#fdinqtx518h6d)" height="33.9688" rx="12.5" ry="12.5" style="stroke: #A80036; stroke-width: 1.5;" width="119" x="650.625" y="1358.5234"/><text fill="#000000" font-family="sans-serif" font-size="12" lengthAdjust="spacingAndGlyphs" textLength="99" x="660.625" y="1379.6621">Add one factory</text><polygon fill="#FEFECE" filter="url(#fdinqtx518h6d)" points="641.625,1310.1211,778.625,1310.1211,790.625,1322.1211,778.625,1334.1211,641.625,1334.1211,629.625,1322.1211,641.625,1310.1211" style="stroke: #A80036; stroke-width: 1.5;"/><text fill="#000000" font-family="sans-serif" font-size="11" lengthAdjust="spacingAndGlyphs" textLength="22" x="714.125" y="1344.3315">yes</text><text fill="#000000" font-family="sans-serif" font-size="11" lengthAdjust="spacingAndGlyphs" textLength="137" x="641.625" y="1325.9292">Fewer than 2 factories?</text><text fill="#000000" font-family="sans-serif" font-size="11" lengthAdjust="spacingAndGlyphs" textLength="14" x="790.625" y="1319.5269">no</text><polygon fill="#FEFECE" filter="url(#fdinqtx518h6d)" points="710.125,1412.4922,722.125,1424.4922,710.125,1436.4922,698.125,1424.4922,710.125,1412.4922" style="stroke: #A80036; stroke-width: 1.5;"/><ellipse cx="710.125" cy="1479.4922" fill="#FFFFFF" filter="url(#fdinqtx518h6d)" rx="11" ry="11" style="stroke: #000000; stroke-width: 1.0;"/><ellipse cx="710.125" cy="1479.4922" fill="#000000" rx="6" ry="6" style="stroke: #7F7F7F; stroke-width: 1.0;"/><line style="stroke: #A80036; stroke-width: 1.5;" x1="102" x2="92" y1="156.2969" y2="156.2969"/><line style="stroke: #A80036; stroke-width: 1.5;" x1="92" x2="92" y1="156.2969" y2="178.2969"/><polygon fill="#A80036" points="88,168.2969,92,178.2969,96,168.2969,92,172.2969" style="stroke: #A80036; stroke-width: 1.0;"/><line style="stroke: #A80036; stroke-width: 1.5;" x1="308" x2="318" y1="156.2969" y2="156.2969"/><line style="stroke: #A80036; stroke-width: 1.5;" x1="318" x2="318" y1="156.2969" y2="178.2969"/><polygon fill="#A80036" points="314,168.2969,318,178.2969,322,168.2969,318,172.2969" style="stroke: #A80036; stroke-width: 1.0;"/><line style="stroke: #A80036; stroke-width: 1.5;" x1="92" x2="92" y1="212.2656" y2="230.2656"/><line style="stroke: #A80036; stroke-width: 1.5;" x1="92" x2="193" y1="230.2656" y2="230.2656"/><polygon fill="#A80036" points="183,226.2656,193,230.2656,183,234.2656,187,230.2656" style="stroke: #A80036; stroke-width: 1.0;"/><line style="stroke: #A80036; stroke-width: 1.5;" x1="318" x2="318" y1="212.2656" y2="230.2656"/><line style="stroke: #A80036; stroke-width: 1.5;" x1="318" x2="217" y1="230.2656" y2="230.2656"/><polygon fill="#A80036" points="227,226.2656,217,230.2656,227,234.2656,223,230.2656" style="stroke: #A80036; stroke-width: 1.0;"/><line style="stroke: #A80036; stroke-width: 1.5;" x1="557.5" x2="547.5" y1="156.2969" y2="156.2969"/><line style="stroke: #A80036; stroke-width: 1.5;" x1="547.5" x2="547.5" y1="156.2969" y2="178.2969"/><polygon fill="#A80036" points="543.5,168.2969,547.5,178.2969,551.5,168.2969,547.5,172.2969" style="stroke: #A80036; stroke-width: 1.0;"/><line style="stroke: #A80036; stroke-width: 1.5;" x1="743.5" x2="753.5" y1="156.2969" y2="156.2969"/><line style="stroke: #A80036; stroke-width: 1.5;" x1="753.5" x2="753.5" y1="156.2969" y2="178.2969"/><polygon fill="#A80036" points="749.5,168.2969,753.5,178.2969,757.5,168.2969,753.5,172.2969" style="stroke: #A80036; stroke-width: 1.0;"/><line style="stroke: #A80036; stroke-width: 1.5;" x1="547.5" x2="547.5" y1="212.2656" y2="230.2656"/><line style="stroke: #A80036; stroke-width: 1.5;" x1="547.5" x2="638.5" y1="230.2656" y2="230.2656"/><polygon fill="#A80036" points="628.5,226.2656,638.5,230.2656,628.5,234.2656,632.5,230.2656" style="stroke: #A80036; stroke-width: 1.0;"/><line style="stroke: #A80036; stroke-width: 1.5;" x1="753.5" x2="753.5" y1="212.2656" y2="230.2656"/><line style="stroke: #A80036; stroke-width: 1.5;" x1="753.5" x2="662.5" y1="230.2656" y2="230.2656"/><polygon fill="#A80036" points="672.5,226.2656,662.5,230.2656,672.5,234.2656,668.5,230.2656" style="stroke: #A80036; stroke-width: 1.0;"/><line style="stroke: #A80036; stroke-width: 1.5;" x1="364.25" x2="205" y1="122.2969" y2="122.2969"/><line style="stroke: #A80036; stroke-width: 1.5;" x1="205" x2="205" y1="122.2969" y2="144.2969"/><polygon fill="#A80036" points="201,134.2969,205,144.2969,209,134.2969,205,138.2969" style="stroke: #A80036; stroke-width: 1.0;"/><line style="stroke: #A80036; stroke-width: 1.5;" x1="491.25" x2="650.5" y1="122.2969" y2="122.2969"/><line style="stroke: #A80036; stroke-width: 1.5;" x1="650.5" x2="650.5" y1="122.2969" y2="144.2969"/><polygon fill="#A80036" points="646.5,134.2969,650.5,144.2969,654.5,134.2969,650.5,138.2969" style="stroke: #A80036; stroke-width: 1.0;"/><line style="stroke: #A80036; stroke-width: 1.5;" x1="205" x2="205" y1="242.2656" y2="260.2656"/><line style="stroke: #A80036; stroke-width: 1.5;" x1="205" x2="415.75" y1="260.2656" y2="260.2656"/><polygon fill="#A80036" points="405.75,256.2656,415.75,260.2656,405.75,264.2656,409.75,260.2656" style="stroke: #A80036; stroke-width: 1.0;"/><line style="stroke: #A80036; stroke-width: 1.5;" x1="650.5" x2="650.5" y1="242.2656" y2="260.2656"/><line style="stroke: #A80036; stroke-width: 1.5;" x1="650.5" x2="439.75" y1="260.2656" y2="260.2656"/><polygon fill="#A80036" points="449.75,256.2656,439.75,260.2656,449.75,264.2656,445.75,260.2656" style="stroke: #A80036; stroke-width: 1.0;"/><line style="stroke: #A80036; stroke-width: 1.5;" x1="635.125" x2="427.75" y1="88.2969" y2="88.2969"/><line style="stroke: #A80036; stroke-width: 1.5;" x1="427.75" x2="427.75" y1="88.2969" y2="110.2969"/><polygon fill="#A80036" points="423.75,100.2969,427.75,110.2969,431.75,100.2969,427.75,104.2969" style="stroke: #A80036; stroke-width: 1.0;"/><line style="stroke: #A80036; stroke-width: 1.5;" x1="785.125" x2="992.5" y1="88.2969" y2="88.2969"/><line style="stroke: #A80036; stroke-width: 1.5;" x1="992.5" x2="992.5" y1="88.2969" y2="110.2969"/><polygon fill="#A80036" points="988.5,100.2969,992.5,110.2969,996.5,100.2969,992.5,104.2969" style="stroke: #A80036; stroke-width: 1.0;"/><line style="stroke: #A80036; stroke-width: 1.5;" x1="427.75" x2="427.75" y1="272.2656" y2="290.2656"/><line style="stroke: #A80036; stroke-width: 1.5;" x1="427.75" x2="698.125" y1="290.2656" y2="290.2656"/><polygon fill="#A80036" points="688.125,286.2656,698.125,290.2656,688.125,294.2656,692.125,290.2656" style="stroke: #A80036; stroke-width: 1.0;"/><line style="stroke: #A80036; stroke-width: 1.5;" x1="992.5" x2="992.5" y1="144.2656" y2="290.2656"/><line style="stroke: #A80036; stroke-width: 1.5;" x1="992.5" x2="722.125" y1="290.2656" y2="290.2656"/><polygon fill="#A80036" points="732.125,286.2656,722.125,290.2656,732.125,294.2656,728.125,290.2656" style="stroke: #A80036; stroke-width: 1.0;"/><line style="stroke: #A80036; stroke-width: 1.5;" x1="447.375" x2="437.375" y1="416.668" y2="416.668"/><line style="stroke: #A80036; stroke-width: 1.5;" x1="437.375" x2="437.375" y1="416.668" y2="438.668"/><polygon fill="#A80036" points="433.375,428.668,437.375,438.668,441.375,428.668,437.375,432.668" style="stroke: #A80036; stroke-width: 1.0;"/><line style="stroke: #A80036; stroke-width: 1.5;" x1="611.375" x2="621.375" y1="416.668" y2="416.668"/><line style="stroke: #A80036; stroke-width: 1.5;" x1="621.375" x2="621.375" y1="416.668" y2="438.668"/><polygon fill="#A80036" points="617.375,428.668,621.375,438.668,625.375,428.668,621.375,432.668" style="stroke: #A80036; stroke-width: 1.0;"/><line style="stroke: #A80036; stroke-width: 1.5;" x1="437.375" x2="437.375" y1="472.6367" y2="490.6367"/><line style="stroke: #A80036; stroke-width: 1.5;" x1="437.375" x2="517.375" y1="490.6367" y2="490.6367"/><polygon fill="#A80036" points="507.375,486.6367,517.375,490.6367,507.375,494.6367,511.375,490.6367" style="stroke: #A80036; stroke-width: 1.0;"/><line style="stroke: #A80036; stroke-width: 1.5;" x1="621.375" x2="621.375" y1="472.6367" y2="490.6367"/><line style="stroke: #A80036; stroke-width: 1.5;" x1="621.375" x2="541.375" y1="490.6367" y2="490.6367"/><polygon fill="#A80036" points="551.375,486.6367,541.375,490.6367,551.375,494.6367,547.375,490.6367" style="stroke: #A80036; stroke-width: 1.0;"/><line style="stroke: #A80036; stroke-width: 1.5;" x1="813.875" x2="803.875" y1="416.668" y2="416.668"/><line style="stroke: #A80036; stroke-width: 1.5;" x1="803.875" x2="803.875" y1="416.668" y2="438.668"/><polygon fill="#A80036" points="799.875,428.668,803.875,438.668,807.875,428.668,803.875,432.668" style="stroke: #A80036; stroke-width: 1.0;"/><line style="stroke: #A80036; stroke-width: 1.5;" x1="967.875" x2="977.875" y1="416.668" y2="416.668"/><line style="stroke: #A80036; stroke-width: 1.5;" x1="977.875" x2="977.875" y1="416.668" y2="438.668"/><polygon fill="#A80036" points="973.875,428.668,977.875,438.668,981.875,428.668,977.875,432.668" style="stroke: #A80036; stroke-width: 1.0;"/><line style="stroke: #A80036; stroke-width: 1.5;" x1="803.875" x2="803.875" y1="472.6367" y2="490.6367"/><line style="stroke: #A80036; stroke-width: 1.5;" x1="803.875" x2="878.875" y1="490.6367" y2="490.6367"/><polygon fill="#A80036" points="868.875,486.6367,878.875,490.6367,868.875,494.6367,872.875,490.6367" style="stroke: #A80036; stroke-width: 1.0;"/><line style="stroke: #A80036; stroke-width: 1.5;" x1="977.875" x2="977.875" y1="472.6367" y2="490.6367"/><line style="stroke: #A80036; stroke-width: 1.5;" x1="977.875" x2="902.875" y1="490.6367" y2="490.6367"/><polygon fill="#A80036" points="912.875,486.6367,902.875,490.6367,912.875,494.6367,908.875,490.6367" style="stroke: #A80036; stroke-width: 1.0;"/><line style="stroke: #A80036; stroke-width: 1.5;" x1="655.625" x2="529.375" y1="382.668" y2="382.668"/><line style="stroke: #A80036; stroke-width: 1.5;" x1="529.375" x2="529.375" y1="382.668" y2="404.668"/><polygon fill="#A80036" points="525.375,394.668,529.375,404.668,533.375,394.668,529.375,398.668" style="stroke: #A80036; stroke-width: 1.0;"/><line style="stroke: #A80036; stroke-width: 1.5;" x1="764.625" x2="890.875" y1="382.668" y2="382.668"/><line style="stroke: #A80036; stroke-width: 1.5;" x1="890.875" x2="890.875" y1="382.668" y2="404.668"/><polygon fill="#A80036" points="886.875,394.668,890.875,404.668,894.875,394.668,890.875,398.668" style="stroke: #A80036; stroke-width: 1.0;"/><line style="stroke: #A80036; stroke-width: 1.5;" x1="529.375" x2="529.375" y1="502.6367" y2="520.6367"/><line style="stroke: #A80036; stroke-width: 1.5;" x1="529.375" x2="698.125" y1="520.6367" y2="520.6367"/><polygon fill="#A80036" points="688.125,516.6367,698.125,520.6367,688.125,524.6367,692.125,520.6367" style="stroke: #A80036; stroke-width: 1.0;"/><line style="stroke: #A80036; stroke-width: 1.5;" x1="890.875" x2="890.875" y1="502.6367" y2="520.6367"/><line style="stroke: #A80036; stroke-width: 1.5;" x1="890.875" x2="722.125" y1="520.6367" y2="520.6367"/><polygon fill="#A80036" points="732.125,516.6367,722.125,520.6367,732.125,524.6367,728.125,520.6367" style="stroke: #A80036; stroke-width: 1.0;"/><line style="stroke: #A80036; stroke-width: 1.5;" x1="710.125" x2="710.125" y1="346.2656" y2="370.668"/><polygon fill="#A80036" points="706.125,360.668,710.125,370.668,714.125,360.668,710.125,364.668" style="stroke: #A80036; stroke-width: 1.0;"/><line style="stroke: #A80036; stroke-width: 1.5;" x1="786.125" x2="1075.375" y1="334.2656" y2="334.2656"/><polygon fill="#A80036" points="1071.375,441.6523,1075.375,451.6523,1079.375,441.6523,1075.375,445.6523" style="stroke: #A80036; stroke-width: 1.5;"/><line style="stroke: #A80036; stroke-width: 1.5;" x1="1075.375" x2="1075.375" y1="334.2656" y2="564.6367"/><line style="stroke: #A80036; stroke-width: 1.5;" x1="1075.375" x2="722.125" y1="564.6367" y2="564.6367"/><polygon fill="#A80036" points="732.125,560.6367,722.125,564.6367,732.125,568.6367,728.125,564.6367" style="stroke: #A80036; stroke-width: 1.0;"/><line style="stroke: #A80036; stroke-width: 1.5;" x1="710.125" x2="710.125" y1="532.6367" y2="552.6367"/><polygon fill="#A80036" points="706.125,542.6367,710.125,552.6367,714.125,542.6367,710.125,546.6367" style="stroke: #A80036; stroke-width: 1.0;"/><line style="stroke: #A80036; stroke-width: 1.5;" x1="710.125" x2="710.125" y1="302.2656" y2="322.2656"/><polygon fill="#A80036" points="706.125,312.2656,710.125,322.2656,714.125,312.2656,710.125,316.2656" style="stroke: #A80036; stroke-width: 1.0;"/><line style="stroke: #A80036; stroke-width: 1.5;" x1="504.625" x2="494.625" y1="691.0391" y2="691.0391"/><line style="stroke: #A80036; stroke-width: 1.5;" x1="494.625" x2="494.625" y1="691.0391" y2="713.0391"/><polygon fill="#A80036" points="490.625,703.0391,494.625,713.0391,498.625,703.0391,494.625,707.0391" style="stroke: #A80036; stroke-width: 1.0;"/><line style="stroke: #A80036; stroke-width: 1.5;" x1="658.625" x2="668.625" y1="691.0391" y2="691.0391"/><line style="stroke: #A80036; stroke-width: 1.5;" x1="668.625" x2="668.625" y1="691.0391" y2="713.0391"/><polygon fill="#A80036" points="664.625,703.0391,668.625,713.0391,672.625,703.0391,668.625,707.0391" style="stroke: #A80036; stroke-width: 1.0;"/><line style="stroke: #A80036; stroke-width: 1.5;" x1="494.625" x2="494.625" y1="747.0078" y2="765.0078"/><line style="stroke: #A80036; stroke-width: 1.5;" x1="494.625" x2="569.625" y1="765.0078" y2="765.0078"/><polygon fill="#A80036" points="559.625,761.0078,569.625,765.0078,559.625,769.0078,563.625,765.0078" style="stroke: #A80036; stroke-width: 1.0;"/><line style="stroke: #A80036; stroke-width: 1.5;" x1="668.625" x2="668.625" y1="747.0078" y2="765.0078"/><line style="stroke: #A80036; stroke-width: 1.5;" x1="668.625" x2="593.625" y1="765.0078" y2="765.0078"/><polygon fill="#A80036" points="603.625,761.0078,593.625,765.0078,603.625,769.0078,599.625,765.0078" style="stroke: #A80036; stroke-width: 1.0;"/><line style="stroke: #A80036; stroke-width: 1.5;" x1="639.625" x2="581.625" y1="657.0391" y2="657.0391"/><line style="stroke: #A80036; stroke-width: 1.5;" x1="581.625" x2="581.625" y1="657.0391" y2="679.0391"/><polygon fill="#A80036" points="577.625,669.0391,581.625,679.0391,585.625,669.0391,581.625,673.0391" style="stroke: #A80036; stroke-width: 1.0;"/><line style="stroke: #A80036; stroke-width: 1.5;" x1="780.625" x2="838.625" y1="657.0391" y2="657.0391"/><line style="stroke: #A80036; stroke-width: 1.5;" x1="838.625" x2="838.625" y1="657.0391" y2="679.0391"/><polygon fill="#A80036" points="834.625,669.0391,838.625,679.0391,842.625,669.0391,838.625,673.0391" style="stroke: #A80036; stroke-width: 1.0;"/><line style="stroke: #A80036; stroke-width: 1.5;" x1="581.625" x2="581.625" y1="777.0078" y2="795.0078"/><line style="stroke: #A80036; stroke-width: 1.5;" x1="581.625" x2="698.125" y1="795.0078" y2="795.0078"/><polygon fill="#A80036" points="688.125,791.0078,698.125,795.0078,688.125,799.0078,692.125,795.0078" style="stroke: #A80036; stroke-width: 1.0;"/><line style="stroke: #A80036; stroke-width: 1.5;" x1="838.625" x2="838.625" y1="713.0078" y2="795.0078"/><line style="stroke: #A80036; stroke-width: 1.5;" x1="838.625" x2="722.125" y1="795.0078" y2="795.0078"/><polygon fill="#A80036" points="732.125,791.0078,722.125,795.0078,732.125,799.0078,728.125,795.0078" style="stroke: #A80036; stroke-width: 1.0;"/><line style="stroke: #A80036; stroke-width: 1.5;" x1="710.125" x2="710.125" y1="620.6367" y2="645.0391"/><polygon fill="#A80036" points="706.125,635.0391,710.125,645.0391,714.125,635.0391,710.125,639.0391" style="stroke: #A80036; stroke-width: 1.0;"/><line style="stroke: #A80036; stroke-width: 1.5;" x1="798.625" x2="928.625" y1="608.6367" y2="608.6367"/><polygon fill="#A80036" points="924.625,716.0234,928.625,726.0234,932.625,716.0234,928.625,720.0234" style="stroke: #A80036; stroke-width: 1.5;"/><line style="stroke: #A80036; stroke-width: 1.5;" x1="928.625" x2="928.625" y1="608.6367" y2="839.0078"/><line style="stroke: #A80036; stroke-width: 1.5;" x1="928.625" x2="722.125" y1="839.0078" y2="839.0078"/><polygon fill="#A80036" points="732.125,835.0078,722.125,839.0078,732.125,843.0078,728.125,839.0078" style="stroke: #A80036; stroke-width: 1.0;"/><line style="stroke: #A80036; stroke-width: 1.5;" x1="710.125" x2="710.125" y1="807.0078" y2="827.0078"/><polygon fill="#A80036" points="706.125,817.0078,710.125,827.0078,714.125,817.0078,710.125,821.0078" style="stroke: #A80036; stroke-width: 1.0;"/><line style="stroke: #A80036; stroke-width: 1.5;" x1="710.125" x2="710.125" y1="576.6367" y2="596.6367"/><polygon fill="#A80036" points="706.125,586.6367,710.125,596.6367,714.125,586.6367,710.125,590.6367" style="stroke: #A80036; stroke-width: 1.0;"/><line style="stroke: #A80036; stroke-width: 1.5;" x1="710.125" x2="710.125" y1="895.0078" y2="919.4102"/><polygon fill="#A80036" points="706.125,909.4102,710.125,919.4102,714.125,909.4102,710.125,913.4102" style="stroke: #A80036; stroke-width: 1.0;"/><line style="stroke: #A80036; stroke-width: 1.5;" x1="798.625" x2="810.625" y1="883.0078" y2="883.0078"/><polygon fill="#A80036" points="806.625,926.3945,810.625,936.3945,814.625,926.3945,810.625,930.3945" style="stroke: #A80036; stroke-width: 1.5;"/><line style="stroke: #A80036; stroke-width: 1.5;" x1="810.625" x2="810.625" y1="883.0078" y2="985.3789"/><line style="stroke: #A80036; stroke-width: 1.5;" x1="810.625" x2="722.125" y1="985.3789" y2="985.3789"/><polygon fill="#A80036" points="732.125,981.3789,722.125,985.3789,732.125,989.3789,728.125,985.3789" style="stroke: #A80036; stroke-width: 1.0;"/><line style="stroke: #A80036; stroke-width: 1.5;" x1="710.125" x2="710.125" y1="953.3789" y2="973.3789"/><polygon fill="#A80036" points="706.125,963.3789,710.125,973.3789,714.125,963.3789,710.125,967.3789" style="stroke: #A80036; stroke-width: 1.0;"/><line style="stroke: #A80036; stroke-width: 1.5;" x1="710.125" x2="710.125" y1="851.0078" y2="871.0078"/><polygon fill="#A80036" points="706.125,861.0078,710.125,871.0078,714.125,861.0078,710.125,865.0078" style="stroke: #A80036; stroke-width: 1.0;"/><line style="stroke: #A80036; stroke-width: 1.5;" x1="710.125" x2="710.125" y1="1041.3789" y2="1065.7813"/><polygon fill="#A80036" points="706.125,1055.7813,710.125,1065.7813,714.125,1055.7813,710.125,1059.7813" style="stroke: #A80036; stroke-width: 1.0;"/><line style="stroke: #A80036; stroke-width: 1.5;" x1="794.125" x2="806.125" y1="1029.3789" y2="1029.3789"/><polygon fill="#A80036" points="802.125,1072.7656,806.125,1082.7656,810.125,1072.7656,806.125,1076.7656" style="stroke: #A80036; stroke-width: 1.5;"/><line style="stroke: #A80036; stroke-width: 1.5;" x1="806.125" x2="806.125" y1="1029.3789" y2="1131.75"/><line style="stroke: #A80036; stroke-width: 1.5;" x1="806.125" x2="722.125" y1="1131.75" y2="1131.75"/><polygon fill="#A80036" points="732.125,1127.75,722.125,1131.75,732.125,1135.75,728.125,1131.75" style="stroke: #A80036; stroke-width: 1.0;"/><line style="stroke: #A80036; stroke-width: 1.5;" x1="710.125" x2="710.125" y1="1099.75" y2="1119.75"/><polygon fill="#A80036" points="706.125,1109.75,710.125,1119.75,714.125,1109.75,710.125,1113.75" style="stroke: #A80036; stroke-width: 1.0;"/><line style="stroke: #A80036; stroke-width: 1.5;" x1="710.125" x2="710.125" y1="997.3789" y2="1017.3789"/><polygon fill="#A80036" points="706.125,1007.3789,710.125,1017.3789,714.125,1007.3789,710.125,1011.3789" style="stroke: #A80036; stroke-width: 1.0;"/><line style="stroke: #A80036; stroke-width: 1.5;" x1="710.125" x2="710.125" y1="1187.75" y2="1212.1523"/><polygon fill="#A80036" points="706.125,1202.1523,710.125,1212.1523,714.125,1202.1523,710.125,1206.1523" style="stroke: #A80036; stroke-width: 1.0;"/><line style="stroke: #A80036; stroke-width: 1.5;" x1="795.625" x2="807.625" y1="1175.75" y2="1175.75"/><polygon fill="#A80036" points="803.625,1219.1367,807.625,1229.1367,811.625,1219.1367,807.625,1223.1367" style="stroke: #A80036; stroke-width: 1.5;"/><line style="stroke: #A80036; stroke-width: 1.5;" x1="807.625" x2="807.625" y1="1175.75" y2="1278.1211"/><line style="stroke: #A80036; stroke-width: 1.5;" x1="807.625" x2="722.125" y1="1278.1211" y2="1278.1211"/><polygon fill="#A80036" points="732.125,1274.1211,722.125,1278.1211,732.125,1282.1211,728.125,1278.1211" style="stroke: #A80036; stroke-width: 1.0;"/><line style="stroke: #A80036; stroke-width: 1.5;" x1="710.125" x2="710.125" y1="1246.1211" y2="1266.1211"/><polygon fill="#A80036" points="706.125,1256.1211,710.125,1266.1211,714.125,1256.1211,710.125,1260.1211" style="stroke: #A80036; stroke-width: 1.0;"/><line style="stroke: #A80036; stroke-width: 1.5;" x1="710.125" x2="710.125" y1="1143.75" y2="1163.75"/><polygon fill="#A80036" points="706.125,1153.75,710.125,1163.75,714.125,1153.75,710.125,1157.75" style="stroke: #A80036; stroke-width: 1.0;"/><line style="stroke: #A80036; stroke-width: 1.5;" x1="710.125" x2="710.125" y1="1334.1211" y2="1358.5234"/><polygon fill="#A80036" points="706.125,1348.5234,710.125,1358.5234,714.125,1348.5234,710.125,1352.5234" style="stroke: #A80036; stroke-width: 1.0;"/><line style="stroke: #A80036; stroke-width: 1.5;" x1="790.625" x2="802.625" y1="1322.1211" y2="1322.1211"/><polygon fill="#A80036" points="798.625,1365.5078,802.625,1375.5078,806.625,1365.5078,802.625,1369.5078" style="stroke: #A80036; stroke-width: 1.5;"/><line style="stroke: #A80036; stroke-width: 1.5;" x1="802.625" x2="802.625" y1="1322.1211" y2="1424.4922"/><line style="stroke: #A80036; stroke-width: 1.5;" x1="802.625" x2="722.125" y1="1424.4922" y2="1424.4922"/><polygon fill="#A80036" points="732.125,1420.4922,722.125,1424.4922,732.125,1428.4922,728.125,1424.4922" style="stroke: #A80036; stroke-width: 1.0;"/><line style="stroke: #A80036; stroke-width: 1.5;" x1="710.125" x2="710.125" y1="1392.4922" y2="1412.4922"/><polygon fill="#A80036" points="706.125,1402.4922,710.125,1412.4922,714.125,1402.4922,710.125,1406.4922" style="stroke: #A80036; stroke-width: 1.0;"/><line style="stroke: #A80036; stroke-width: 1.5;" x1="710.125" x2="710.125" y1="1290.1211" y2="1310.1211"/><polygon fill="#A80036" points="706.125,1300.1211,710.125,1310.1211,714.125,1300.1211,710.125,1304.1211" style="stroke: #A80036; stroke-width: 1.0;"/><line style="stroke: #A80036; stroke-width: 1.5;" x1="710.125" x2="710.125" y1="30" y2="76.2969"/><polygon fill="#A80036" points="706.125,66.2969,710.125,76.2969,714.125,66.2969,710.125,70.2969" style="stroke: #A80036; stroke-width: 1.0;"/><line style="stroke: #A80036; stroke-width: 1.5;" x1="710.125" x2="710.125" y1="1436.4922" y2="1468.4922"/><polygon fill="#A80036" points="706.125,1458.4922,710.125,1468.4922,714.125,1458.4922,710.125,1462.4922" style="stroke: #A80036; stroke-width: 1.0;"/><!--MD5=[5bdbf2692637fc18fb5efa686a297036]
@startuml
start
partition Adapt {
if (Road needs to adapt?) then (yes)
    if (Too few workers?) then (yes)
        if (All apartmens set to MULTIPLY?) then (yes)
            :Add one apartment;
        else (no)
            :Set all apartments to MULTIPLY;
        endif
    else (no)
        if (All apartments set to REST?) then (yes)
            :Remove one apartment;
        else (no)
            :Set all apartments to REST;
        endif
    endif
else (no)
    :Set all apartments to NEUTRAL;
endif
if (Shed needs to adapt?) then (yes)
    if (Too little food?) then (yes)
        if (More than 2 foodcourts?) then (yes)
            :Remove one foodcourt;
        else (no)
            :Add one farmland;
        endif
    else (no)
        if (More than 2 farmland?) then (yes)
            :Remove one farmland;
        else (no)
            :Add one foodcourt;
        endif
    endif
else (no)
endif
if (Magazine needs to adapt?) then (yes)
    if (Too many products?) then (yes)
        if (More than 2 factories?) then (yes)
            :Remove one factory;
        else (no)
            :Add one apartment;
        endif
    else (no)
        :Add one apartment;
    endif
else (no)
endif
if (Fewer than 2 apartments?) then (yes)
    :Add one apartment;
else (no)
endif
if (Fewer than 2 farmlands?) then (yes)
    :Add one farmland;
else (no)
endif
if (Fewer than 2 foodcourts?) then (yes)
    :Add one foodcourt;
else (no)
endif
if (Fewer than 2 factories?) then (yes)
    :Add one factory;
else (no)
endif
}
stop
@enduml

PlantUML version 1.2020.09beta11(Unknown compile time)
(GPL source distribution)
Java Runtime: Java(TM) SE Runtime Environment
JVM: Java HotSpot(TM) 64-Bit Server VM
Java Version: 14.0.1+7
Operating System: Linux
Default Encoding: UTF-8
Language: en
Country: US
--></g></svg>