<?xml version="1.0" encoding="UTF-8" standalone="no"?><svg xmlns="http://www.w3.org/2000/svg" xmlns:xlink="http://www.w3.org/1999/xlink" contentScriptType="application/ecmascript" contentStyleType="text/css" height="661px" preserveAspectRatio="none" style="width:533px;height:661px;" version="1.1" viewBox="0 0 533 661" width="533px" zoomAndPan="magnify"><defs><filter height="300%" id="f1skvsaq15gzsa" width="300%" x="-1" y="-1"><feGaussianBlur result="blurOut" stdDeviation="2.0"/><feColorMatrix in="blurOut" result="blurOut2" type="matrix" values="0 0 0 0 0 0 0 0 0 0 0 0 0 0 0 0 0 0 .4 0"/><feOffset dx="4.0" dy="4.0" in="blurOut2" result="blurOut3"/><feBlend in="SourceGraphic" in2="blurOut3" mode="normal"/></filter></defs><g><line style="stroke: #A80036; stroke-width: 1.0; stroke-dasharray: 5.0,5.0;" x1="52" x2="52" y1="38.2969" y2="621.6875"/><line style="stroke: #A80036; stroke-width: 1.0; stroke-dasharray: 5.0,5.0;" x1="149" x2="149" y1="38.2969" y2="621.6875"/><line style="stroke: #A80036; stroke-width: 1.0; stroke-dasharray: 5.0,5.0;" x1="320.5" x2="320.5" y1="38.2969" y2="621.6875"/><line style="stroke: #A80036; stroke-width: 1.0; stroke-dasharray: 5.0,5.0;" x1="429" x2="429" y1="38.2969" y2="621.6875"/><line style="stroke: #A80036; stroke-width: 1.0; stroke-dasharray: 5.0,5.0;" x1="497" x2="497" y1="38.2969" y2="621.6875"/><rect fill="#FEFECE" filter="url(#f1skvsaq15gzsa)" height="30.2969" style="stroke: #A80036; stroke-width: 1.5;" width="85" x="8" y="3"/><text fill="#000000" font-family="sans-serif" font-size="14" lengthAdjust="spacingAndGlyphs" textLength="71" x="15" y="22.9951">Simulation</text><rect fill="#FEFECE" filter="url(#f1skvsaq15gzsa)" height="30.2969" style="stroke: #A80036; stroke-width: 1.5;" width="85" x="8" y="620.6875"/><text fill="#000000" font-family="sans-serif" font-size="14" lengthAdjust="spacingAndGlyphs" textLength="71" x="15" y="640.6826">Simulation</text><rect fill="#FEFECE" filter="url(#f1skvsaq15gzsa)" height="30.2969" style="stroke: #A80036; stroke-width: 1.5;" width="80" x="107" y="3"/><text fill="#000000" font-family="sans-serif" font-size="14" lengthAdjust="spacingAndGlyphs" textLength="66" x="114" y="22.9951">:Farmland</text><rect fill="#FEFECE" filter="url(#f1skvsaq15gzsa)" height="30.2969" style="stroke: #A80036; stroke-width: 1.5;" width="80" x="107" y="620.6875"/><text fill="#000000" font-family="sans-serif" font-size="14" lengthAdjust="spacingAndGlyphs" textLength="66" x="114" y="640.6826">:Farmland</text><rect fill="#FEFECE" filter="url(#f1skvsaq15gzsa)" height="30.2969" style="stroke: #A80036; stroke-width: 1.5;" width="37" x="300.5" y="3"/><text fill="#000000" font-family="sans-serif" font-size="14" lengthAdjust="spacingAndGlyphs" textLength="23" x="307.5" y="22.9951">Arc</text><rect fill="#FEFECE" filter="url(#f1skvsaq15gzsa)" height="30.2969" style="stroke: #A80036; stroke-width: 1.5;" width="37" x="300.5" y="620.6875"/><text fill="#000000" font-family="sans-serif" font-size="14" lengthAdjust="spacingAndGlyphs" textLength="23" x="307.5" y="640.6826">Arc</text><rect fill="#FEFECE" filter="url(#f1skvsaq15gzsa)" height="30.2969" style="stroke: #A80036; stroke-width: 1.5;" width="54" x="400" y="3"/><text fill="#000000" font-family="sans-serif" font-size="14" lengthAdjust="spacingAndGlyphs" textLength="40" x="407" y="22.9951">:Road</text><rect fill="#FEFECE" filter="url(#f1skvsaq15gzsa)" height="30.2969" style="stroke: #A80036; stroke-width: 1.5;" width="54" x="400" y="620.6875"/><text fill="#000000" font-family="sans-serif" font-size="14" lengthAdjust="spacingAndGlyphs" textLength="40" x="407" y="640.6826">:Road</text><rect fill="#FEFECE" filter="url(#f1skvsaq15gzsa)" height="30.2969" style="stroke: #A80036; stroke-width: 1.5;" width="54" x="468" y="3"/><text fill="#000000" font-family="sans-serif" font-size="14" lengthAdjust="spacingAndGlyphs" textLength="40" x="475" y="22.9951">:Shed</text><rect fill="#FEFECE" filter="url(#f1skvsaq15gzsa)" height="30.2969" style="stroke: #A80036; stroke-width: 1.5;" width="54" x="468" y="620.6875"/><text fill="#000000" font-family="sans-serif" font-size="14" lengthAdjust="spacingAndGlyphs" textLength="40" x="475" y="640.6826">:Shed</text><polygon fill="#A80036" points="137,65.4297,147,69.4297,137,73.4297,141,69.4297" style="stroke: #A80036; stroke-width: 1.0;"/><line style="stroke: #A80036; stroke-width: 1.0;" x1="52.5" x2="143" y1="69.4297" y2="69.4297"/><text fill="#000000" font-family="sans-serif" font-size="13" lengthAdjust="spacingAndGlyphs" textLength="40" x="59.5" y="64.3638">start()</text><line style="stroke: #A80036; stroke-width: 1.0;" x1="149" x2="191" y1="98.5625" y2="98.5625"/><line style="stroke: #A80036; stroke-width: 1.0;" x1="191" x2="191" y1="98.5625" y2="111.5625"/><line style="stroke: #A80036; stroke-width: 1.0;" x1="150" x2="191" y1="111.5625" y2="111.5625"/><polygon fill="#A80036" points="160,107.5625,150,111.5625,160,115.5625,156,111.5625" style="stroke: #A80036; stroke-width: 1.0;"/><text fill="#000000" font-family="sans-serif" font-size="13" lengthAdjust="spacingAndGlyphs" textLength="90" x="156" y="93.4966">_get_tokens()</text><polygon fill="#A80036" points="309,136.6953,319,140.6953,309,144.6953,313,140.6953" style="stroke: #A80036; stroke-width: 1.0;"/><line style="stroke: #A80036; stroke-width: 1.0;" x1="149" x2="315" y1="140.6953" y2="140.6953"/><text fill="#000000" font-family="sans-serif" font-size="13" lengthAdjust="spacingAndGlyphs" textLength="84" x="156" y="135.6294">get_worker()</text><polygon fill="#A80036" points="63.5,165.8281,53.5,169.8281,63.5,173.8281,59.5,169.8281" style="stroke: #A80036; stroke-width: 1.0;"/><line style="stroke: #A80036; stroke-width: 1.0;" x1="57.5" x2="320" y1="169.8281" y2="169.8281"/><text fill="#000000" font-family="sans-serif" font-size="13" lengthAdjust="spacingAndGlyphs" textLength="68" x="69.5" y="164.7622">get_road()</text><polygon fill="#A80036" points="309,194.9609,319,198.9609,309,202.9609,313,198.9609" style="stroke: #A80036; stroke-width: 1.0;"/><line style="stroke: #A80036; stroke-width: 1.0; stroke-dasharray: 2.0,2.0;" x1="52.5" x2="315" y1="198.9609" y2="198.9609"/><text fill="#000000" font-family="sans-serif" font-size="13" lengthAdjust="spacingAndGlyphs" textLength="38" x="59.5" y="193.895">:Road</text><polygon fill="#A80036" points="417,224.0938,427,228.0938,417,232.0938,421,228.0938" style="stroke: #A80036; stroke-width: 1.0;"/><line style="stroke: #A80036; stroke-width: 1.0;" x1="321" x2="423" y1="228.0938" y2="228.0938"/><text fill="#000000" font-family="sans-serif" font-size="13" lengthAdjust="spacingAndGlyphs" textLength="62" x="328" y="223.0278">remove()</text><polygon fill="#A80036" points="332,253.2266,322,257.2266,332,261.2266,328,257.2266" style="stroke: #A80036; stroke-width: 1.0;"/><line style="stroke: #A80036; stroke-width: 1.0; stroke-dasharray: 2.0,2.0;" x1="326" x2="428" y1="257.2266" y2="257.2266"/><text fill="#000000" font-family="sans-serif" font-size="13" lengthAdjust="spacingAndGlyphs" textLength="52" x="338" y="252.1606">:Worker</text><polygon fill="#A80036" points="160,282.3594,150,286.3594,160,290.3594,156,286.3594" style="stroke: #A80036; stroke-width: 1.0;"/><line style="stroke: #A80036; stroke-width: 1.0; stroke-dasharray: 2.0,2.0;" x1="154" x2="320" y1="286.3594" y2="286.3594"/><text fill="#000000" font-family="sans-serif" font-size="13" lengthAdjust="spacingAndGlyphs" textLength="52" x="166" y="281.2935">:Worker</text><line style="stroke: #A80036; stroke-width: 1.0;" x1="149" x2="191" y1="315.4922" y2="315.4922"/><line style="stroke: #A80036; stroke-width: 1.0;" x1="191" x2="191" y1="315.4922" y2="328.4922"/><line style="stroke: #A80036; stroke-width: 1.0;" x1="150" x2="191" y1="328.4922" y2="328.4922"/><polygon fill="#A80036" points="160,324.4922,150,328.4922,160,332.4922,156,328.4922" style="stroke: #A80036; stroke-width: 1.0;"/><text fill="#000000" font-family="sans-serif" font-size="13" lengthAdjust="spacingAndGlyphs" textLength="60" x="156" y="310.4263">_trigger()</text><line style="stroke: #A80036; stroke-width: 1.0;" x1="149" x2="191" y1="357.625" y2="357.625"/><line style="stroke: #A80036; stroke-width: 1.0;" x1="191" x2="191" y1="357.625" y2="370.625"/><line style="stroke: #A80036; stroke-width: 1.0;" x1="150" x2="191" y1="370.625" y2="370.625"/><polygon fill="#A80036" points="160,366.625,150,370.625,160,374.625,156,370.625" style="stroke: #A80036; stroke-width: 1.0;"/><text fill="#000000" font-family="sans-serif" font-size="13" lengthAdjust="spacingAndGlyphs" textLength="118" x="156" y="352.5591">_release_tokens()</text><polygon fill="#A80036" points="309,395.7578,319,399.7578,309,403.7578,313,399.7578" style="stroke: #A80036; stroke-width: 1.0;"/><line style="stroke: #A80036; stroke-width: 1.0;" x1="149" x2="315" y1="399.7578" y2="399.7578"/><text fill="#000000" font-family="sans-serif" font-size="13" lengthAdjust="spacingAndGlyphs" textLength="115" x="156" y="394.6919">store_food(:Food)</text><polygon fill="#A80036" points="63.5,424.8906,53.5,428.8906,63.5,432.8906,59.5,428.8906" style="stroke: #A80036; stroke-width: 1.0;"/><line style="stroke: #A80036; stroke-width: 1.0;" x1="57.5" x2="320" y1="428.8906" y2="428.8906"/><text fill="#000000" font-family="sans-serif" font-size="13" lengthAdjust="spacingAndGlyphs" textLength="71" x="69.5" y="423.8247">get_shed()</text><polygon fill="#A80036" points="309,454.0234,319,458.0234,309,462.0234,313,458.0234" style="stroke: #A80036; stroke-width: 1.0;"/><line style="stroke: #A80036; stroke-width: 1.0; stroke-dasharray: 2.0,2.0;" x1="52.5" x2="315" y1="458.0234" y2="458.0234"/><text fill="#000000" font-family="sans-serif" font-size="13" lengthAdjust="spacingAndGlyphs" textLength="39" x="59.5" y="452.9575">:Shed</text><polygon fill="#A80036" points="485,483.1563,495,487.1563,485,491.1563,489,487.1563" style="stroke: #A80036; stroke-width: 1.0;"/><line style="stroke: #A80036; stroke-width: 1.0;" x1="321" x2="491" y1="487.1563" y2="487.1563"/><text fill="#000000" font-family="sans-serif" font-size="13" lengthAdjust="spacingAndGlyphs" textLength="70" x="328" y="482.0903">add(:Food)</text><polygon fill="#A80036" points="309,512.2891,319,516.2891,309,520.2891,313,516.2891" style="stroke: #A80036; stroke-width: 1.0;"/><line style="stroke: #A80036; stroke-width: 1.0;" x1="149" x2="315" y1="516.2891" y2="516.2891"/><text fill="#000000" font-family="sans-serif" font-size="13" lengthAdjust="spacingAndGlyphs" textLength="148" x="156" y="511.2231">store_worker(:Worker)</text><polygon fill="#A80036" points="63.5,541.4219,53.5,545.4219,63.5,549.4219,59.5,545.4219" style="stroke: #A80036; stroke-width: 1.0;"/><line style="stroke: #A80036; stroke-width: 1.0;" x1="57.5" x2="320" y1="545.4219" y2="545.4219"/><text fill="#000000" font-family="sans-serif" font-size="13" lengthAdjust="spacingAndGlyphs" textLength="68" x="69.5" y="540.356">get_road()</text><polygon fill="#A80036" points="309,570.5547,319,574.5547,309,578.5547,313,574.5547" style="stroke: #A80036; stroke-width: 1.0;"/><line style="stroke: #A80036; stroke-width: 1.0; stroke-dasharray: 2.0,2.0;" x1="52.5" x2="315" y1="574.5547" y2="574.5547"/><text fill="#000000" font-family="sans-serif" font-size="13" lengthAdjust="spacingAndGlyphs" textLength="38" x="59.5" y="569.4888">:Road</text><polygon fill="#A80036" points="417,599.6875,427,603.6875,417,607.6875,421,603.6875" style="stroke: #A80036; stroke-width: 1.0;"/><line style="stroke: #A80036; stroke-width: 1.0;" x1="321" x2="423" y1="603.6875" y2="603.6875"/><text fill="#000000" font-family="sans-serif" font-size="13" lengthAdjust="spacingAndGlyphs" textLength="84" x="328" y="598.6216">add(:worker)</text><!--MD5=[84935c018204d2a26e7feda6692f28f4]
@startuml
Simulation -> ":Farmland" : start()
":Farmland" -> ":Farmland" : _get_tokens()
":Farmland" -> Arc : get_worker()
Arc -> Simulation : get_road()
Arc <- - Simulation : :Road
Arc -> ":Road" : remove()
Arc <- - ":Road" : :Worker
Arc - -> ":Farmland" : :Worker
":Farmland" -> ":Farmland" : _trigger()
":Farmland" -> ":Farmland" : _release_tokens()
":Farmland" -> Arc : store_food(:Food)
Arc -> Simulation : get_shed()
Arc <- - Simulation : :Shed
Arc -> ":Shed" : add(:Food)
":Farmland" -> Arc : store_worker(:Worker)
Arc -> Simulation : get_road()
Arc <- - Simulation : :Road
Arc -> ":Road" : add(:worker)
@enduml

PlantUML version 1.2020.09beta11(Unknown compile time)
(GPL source distribution)
Java Runtime: Java(TM) SE Runtime Environment
JVM: Java HotSpot(TM) 64-Bit Server VM
Java Version: 14.0.1+7
Operating System: Linux
Default Encoding: UTF-8
Language: en
Country: US
--></g></svg>